<?xml version="1.0" encoding="utf-8"?>
<!-- Generator: Adobe Illustrator 18.1.1, SVG Export Plug-In . SVG Version: 6.00 Build 0)  -->
<!DOCTYPE svg PUBLIC "-//W3C//DTD SVG 1.1//EN" "http://www.w3.org/Graphics/SVG/1.1/DTD/svg11.dtd">
<svg version="1.1" id="Layer_1" xmlns="http://www.w3.org/2000/svg" xmlns:xlink="http://www.w3.org/1999/xlink" x="0px" y="0px"
	 viewBox="0 0 300 300" enable-background="new 0 0 300 300" xml:space="preserve">
<g>
	<g>
	</g>
	<g>
	</g>
	<g>
	</g>
	<g>
	</g>
	<g>
	</g>
	<g>
	</g>
	<g>
	</g>
	<g>
	</g>
	<g>
	</g>
	<g>
	</g>
	<g>
	</g>
	<g>
	</g>
	<g>
	</g>
	<g>
	</g>
	<g>
	</g>
</g>
<g>
	<g>
	</g>
	<g>
	</g>
	<g>
	</g>
	<g>
	</g>
	<g>
	</g>
	<g>
	</g>
	<g>
	</g>
	<g>
	</g>
	<g>
	</g>
	<g>
	</g>
	<g>
	</g>
	<g>
	</g>
	<g>
	</g>
	<g>
	</g>
	<g>
	</g>
</g>
<g>
	<g>
	</g>
	<g>
	</g>
	<g>
	</g>
	<g>
	</g>
	<g>
	</g>
	<g>
	</g>
	<g>
	</g>
	<g>
	</g>
	<g>
	</g>
	<g>
	</g>
	<g>
	</g>
	<g>
	</g>
	<g>
	</g>
	<g>
	</g>
	<g>
	</g>
</g>
<path fill="#B8C3C4" d="M150,0.5C67.4,0.5,0.5,67.4,0.5,150S67.4,299.5,150,299.5S299.5,232.6,299.5,150S232.6,0.5,150,0.5z
	 M186.1,103.1l8.7-8.7c3-3,7.9-3,10.9,0c3,3,3,7.9,0,10.9l-8.7,8.7c-3,3-7.9,3-10.9,0C183.1,111,183.1,106.1,186.1,103.1z M142.6,79
	c0-4.2,3.3-7.7,7.5-7.7s7.5,3.4,7.5,7.7v12.3c0,4.2-3.3,7.7-7.5,7.7c-4.2,0-7.5-3.4-7.5-7.7V79z M94.3,94.4c3-3,7.9-3,10.9,0
	l8.7,8.7c3,3,3,7.9,0,10.9c-3,3-7.9,3-10.9,0l-8.7-8.7C91.3,102.3,91.3,97.4,94.3,94.4z M79,158.1c-4.2,0-7.7-3.7-7.7-8s3.4-8,7.7-8
	h12.3c4.2,0,7.7,3.8,7.7,8s-3.4,8-7.7,8H79z M113.9,197l-8.7,8.7c-3,3-7.9,3-10.9,0c-3-3-3-7.9,0-10.9l8.7-8.7c3-3,7.9-3,10.9,0
	C116.9,189.1,116.9,194,113.9,197z M157.6,221.1c0,4.3-3.3,7.7-7.5,7.7s-7.5-3.4-7.5-7.7v-12.3c0-4.2,3.3-7.7,7.5-7.7
	c4.2,0,7.5,3.4,7.5,7.7V221.1z M150,189.5c-21.7,0-39.4-17.7-39.4-39.4s17.7-39.4,39.4-39.4c21.7,0,39.4,17.7,39.4,39.4
	S171.7,189.5,150,189.5z M205.7,205.7c-3,3-7.9,3-10.9,0l-8.7-8.7c-3-3-3-7.9,0-10.9s7.9-3,10.9,0l8.7,8.7
	C208.7,197.8,208.7,202.7,205.7,205.7z M221,158.1h-12.3c-4.2,0-7.7-3.7-7.7-8s3.4-8,7.7-8H221c4.2,0,7.7,3.8,7.7,8
	S225.3,158.1,221,158.1z"/>
</svg>
