<?xml version="1.0" encoding="utf-8"?>
<!-- Generator: Adobe Illustrator 18.1.1, SVG Export Plug-In . SVG Version: 6.00 Build 0)  -->
<!DOCTYPE svg PUBLIC "-//W3C//DTD SVG 1.1//EN" "http://www.w3.org/Graphics/SVG/1.1/DTD/svg11.dtd">
<svg version="1.1" id="Layer_1" xmlns="http://www.w3.org/2000/svg" xmlns:xlink="http://www.w3.org/1999/xlink" x="0px" y="0px"
	 viewBox="0 0 300 300" enable-background="new 0 0 300 300" xml:space="preserve">
<g>
	<g>
	</g>
	<g>
	</g>
	<g>
	</g>
	<g>
	</g>
	<g>
	</g>
	<g>
	</g>
	<g>
	</g>
	<g>
	</g>
	<g>
	</g>
	<g>
	</g>
	<g>
	</g>
	<g>
	</g>
	<g>
	</g>
	<g>
	</g>
	<g>
	</g>
</g>
<path fill="#B8C3C4" d="M150,0.5C67.4,0.5,0.5,67.4,0.5,150S67.4,299.5,150,299.5S299.5,232.6,299.5,150S232.6,0.5,150,0.5z
	 M211.6,86.1v32.6l-16.2-13.3l-0.3-19.2H211.6z M206.6,208.6c0,0,0,4.5-4.5,4.5c-5.4,0-40.1,0-40.1,0l0.1-33.5c0,0,0.4-5.5-6-5.5
	h-17c-5.4,0-4.8,5.5-4.8,5.5l-0.1,33.6c0,0-36.7,0.1-41.1,0.1c-3.5,0-3.6-3.6-3.6-3.6v-62.9l60.2-50.3l56.8,50.3V208.6z
	 M212.6,141.7l-62.2-55.8L84,142c-11.1,9.4-16.2,0-16.2,0l82.6-72.7l79.9,72.4C230.3,141.7,225.4,151,212.6,141.7z"/>
<g>
	<g>
	</g>
	<g>
	</g>
	<g>
	</g>
	<g>
	</g>
	<g>
	</g>
	<g>
	</g>
	<g>
	</g>
	<g>
	</g>
	<g>
	</g>
	<g>
	</g>
	<g>
	</g>
	<g>
	</g>
	<g>
	</g>
	<g>
	</g>
	<g>
	</g>
</g>
<g>
	<g>
	</g>
	<g>
	</g>
	<g>
	</g>
	<g>
	</g>
	<g>
	</g>
	<g>
	</g>
	<g>
	</g>
	<g>
	</g>
	<g>
	</g>
	<g>
	</g>
	<g>
	</g>
	<g>
	</g>
	<g>
	</g>
	<g>
	</g>
	<g>
	</g>
</g>
</svg>
