<?xml version="1.0" encoding="utf-8"?>
<!-- Generator: Adobe Illustrator 18.1.1, SVG Export Plug-In . SVG Version: 6.00 Build 0)  -->
<!DOCTYPE svg PUBLIC "-//W3C//DTD SVG 1.1//EN" "http://www.w3.org/Graphics/SVG/1.1/DTD/svg11.dtd">
<svg version="1.1" id="Capa_1" xmlns="http://www.w3.org/2000/svg" xmlns:xlink="http://www.w3.org/1999/xlink" x="0px" y="0px"
	 viewBox="-777 478.8 44.2 44.2" enable-background="new -777 478.8 44.2 44.2" xml:space="preserve">
<g>
	<g>
		<path fill="#FFFFFF" d="M-754.9,478.8c12.2,0,22.1,9.9,22.1,22.1c0,12.2-9.9,22.1-22.1,22.1c-12.2,0-22.1-9.9-22.1-22.1
			C-777,488.7-767.1,478.8-754.9,478.8z M-754.9,521.5c11.4,0,20.6-9.2,20.6-20.6c0-11.4-9.3-20.6-20.6-20.6
			c-11.4,0-20.6,9.3-20.6,20.6C-775.5,512.3-766.3,521.5-754.9,521.5z"/>
		<path fill="#FFFFFF" d="M-752.1,493.1c0.2,0,0.4,0.1,0.5,0.2c0.3,0.3,0.3,0.8,0,1.1l-6.8,6.8l6.8,6.8c0.3,0.3,0.3,0.8,0,1.1
			c-0.3,0.3-0.8,0.3-1.1,0l-7.3-7.3c-0.3-0.3-0.3-0.8,0-1.1l7.3-7.3C-752.5,493.2-752.3,493.1-752.1,493.1z"/>
	</g>
</g>
</svg>
